<svg xmlns="http://www.w3.org/2000/svg" viewBox="0 0 192 192">
<defs>
 <linearGradient id="bg" x1="0" y1="0" x2="1" y2="1"><stop offset="0" stop-color="#171717"/><stop offset="1" stop-color="#050505"/></linearGradient>
 <linearGradient id="red" x1="0" y1="0" x2="0.9" y2="1"><stop stop-color="#ff4a4a"/><stop offset=".5" stop-color="#e30613"/><stop offset="1" stop-color="#9f000b"/></linearGradient>
 <linearGradient id="silver" x1="0" y1="0" x2="1" y2="1"><stop stop-color="#ffffff"/><stop offset=".45" stop-color="#d8d8d8"/><stop offset="1" stop-color="#8f8f8f"/></linearGradient>
 <filter id="shadow" x="-30%" y="-30%" width="160%" height="170%"><feDropShadow dx="0" dy="5" stdDeviation="4" flood-color="#000" flood-opacity=".75"/></filter>
 <filter id="glow"><feGaussianBlur stdDeviation="1.6" result="b"/><feMerge><feMergeNode in="b"/><feMergeNode in="SourceGraphic"/></feMerge></filter>
</defs>
<rect width="192" height="192" rx="42" fill="url(#bg)"/>
<rect x="4" y="4" width="184" height="184" rx="38" fill="none" stroke="#e30613" stroke-width="2" opacity=".9" filter="url(#glow)"/>
<g filter="url(#shadow)">
 <path d="M93 45H54c-22 0-40 17-40 38s18 38 40 38h18l12-15H54c-13 0-23-10-23-23s10-23 23-23h26z" fill="url(#red)" stroke="#ff6262" stroke-width="1"/>
 <path d="M100 72h38c22 0 40 17 40 38s-18 38-40 38h-43l-14-15h57c13 0 23-10 23-23s-10-23-23-23h-27z" fill="url(#silver)" stroke="#fff" stroke-width="1"/>
 <path d="M71 121l14-15 17-19 13 10-19 21-12 13z" fill="#080808" opacity=".92"/>
</g>
</svg>
